<svg width="206" height="206" viewBox="0 0 206 206" fill="none" xmlns="http://www.w3.org/2000/svg">
<path d="M206 124.632L192.648 154.196C123.581 139.577 84.2205 136.85 11.4444 154.196L0 124.632C78.4483 93.532 123.849 98.1387 206 124.632Z" fill="#7A3188"/>
<path d="M206 124.632L192.648 154.196C123.581 139.577 84.2205 136.85 11.4444 154.196L0 124.632C78.4483 93.532 123.849 98.1387 206 124.632Z" fill="#7A3188"/>
<path d="M206 124.632L192.648 154.196C123.581 139.577 84.2205 136.85 11.4444 154.196L0 124.632C78.4483 93.532 123.849 98.1387 206 124.632Z" fill="#7A3188"/>
<path d="M124.631 0L154.196 13.3519C139.577 82.4193 136.85 121.779 154.196 194.556L124.631 206C93.5319 127.552 98.1386 82.151 124.631 0Z" fill="#6BC0B7"/>
<path d="M0 81.6371L13.3519 52.0723C82.4193 66.692 121.779 69.4184 194.556 52.0723L206 81.6371C127.552 112.737 82.151 108.13 0 81.6371Z" fill="#7A3188"/>
<path d="M81.0648 0L51.5 13.3519C66.1197 82.4193 68.8461 121.779 51.5 194.556L81.0648 206C112.164 127.552 107.558 82.151 81.0648 0Z" fill="#6BC0B7"/>
<g clip-path="url(#clip0_89_652)">
<path d="M206 124.632L192.648 154.196C123.581 139.577 84.2206 136.85 11.4444 154.196L0 124.632C78.4482 93.532 123.849 98.1387 206 124.632Z" fill="#7A3188"/>
</g>
<defs>
<clipPath id="clip0_89_652">
<rect width="103" height="51.5" fill="white" transform="translate(0 103)"/>
</clipPath>
</defs>
</svg>
