<svg width="107" height="107" viewBox="0 0 107 107" fill="none" xmlns="http://www.w3.org/2000/svg">
<path d="M107 64.7358L100.065 80.0923C64.19 72.4986 43.7456 71.0824 5.94445 80.0923L0 64.7358C40.7474 48.5821 64.3293 50.9749 107 64.7358Z" fill="#7A3188"/>
<path d="M107 64.7358L100.065 80.0923C64.19 72.4986 43.7456 71.0824 5.94445 80.0923L0 64.7358C40.7474 48.5821 64.3293 50.9749 107 64.7358Z" fill="#7A3188"/>
<path d="M107 64.7358L100.065 80.0923C64.19 72.4986 43.7456 71.0824 5.94445 80.0923L0 64.7358C40.7474 48.5821 64.3293 50.9749 107 64.7358Z" fill="#7A3188"/>
<path d="M64.7358 0L80.0923 6.93518C72.4986 42.81 71.0824 63.2544 80.0923 101.056L64.7358 107C48.5821 66.2526 50.9749 42.6707 64.7358 0Z" fill="#6BC0B7"/>
<path d="M0 42.4038L6.93518 27.0473C42.81 34.641 63.2544 36.0571 101.056 27.0473L107 42.4038C66.2526 58.5574 42.6707 56.1646 0 42.4038Z" fill="#7A3188"/>
<path d="M42.1065 0L26.75 6.93518C34.3437 42.81 35.7599 63.2544 26.75 101.056L42.1065 107C58.2601 66.2526 55.8673 42.6707 42.1065 0Z" fill="#6BC0B7"/>
<g clip-path="url(#clip0_44_50)">
<path d="M107 64.7358L100.065 80.0923C64.19 72.4986 43.7457 71.0824 5.94444 80.0923L0 64.7358C40.7474 48.5822 64.3293 50.975 107 64.7358Z" fill="#7A3188"/>
</g>
<defs>
<clipPath id="clip0_44_50">
<rect width="53.5" height="26.75" fill="white" transform="translate(0 53.5)"/>
</clipPath>
</defs>
</svg>
